<?xml version="1.0" encoding="UTF-8" standalone="no"?><!DOCTYPE svg PUBLIC "-//W3C//DTD SVG 1.1//EN" "http://www.w3.org/Graphics/SVG/1.1/DTD/svg11.dtd"><svg width="100%" height="100%" viewBox="0 0 100 100" version="1.1" xmlns="http://www.w3.org/2000/svg" xmlns:xlink="http://www.w3.org/1999/xlink" xml:space="preserve" xmlns:serif="http://www.serif.com/" style="fill-rule:evenodd;clip-rule:evenodd;stroke-linejoin:round;stroke-miterlimit:2;"><path d="M20.537,12.203l5.893,5.893c-6.032,6.032 -9.763,14.365 -9.763,23.57c-0,9.204 3.731,17.538 9.763,23.57l-5.893,5.892c-7.54,-7.54 -12.204,-17.956 -12.204,-29.462c0,-11.506 4.664,-21.923 12.204,-29.463Zm58.926,-0c7.54,7.54 12.204,17.957 12.204,29.463c-0,11.506 -4.664,21.922 -12.204,29.462l-5.893,-5.892c6.033,-6.032 9.763,-14.366 9.763,-23.57c0,-9.205 -3.73,-17.538 -9.763,-23.57l5.893,-5.893Zm-47.141,11.785l5.893,5.893c-3.016,3.016 -4.882,7.182 -4.882,11.785c0,4.602 1.866,8.769 4.882,11.785l-5.893,5.892c-4.524,-4.524 -7.322,-10.774 -7.322,-17.677c0,-6.904 2.798,-13.154 7.322,-17.678Zm35.356,0c4.524,4.524 7.322,10.774 7.322,17.678c0,6.903 -2.798,13.153 -7.322,17.677l-5.893,-5.892c3.016,-3.016 4.882,-7.183 4.882,-11.785c-0,-4.603 -1.866,-8.769 -4.882,-11.785l5.893,-5.893Zm-17.678,26.011c-4.602,0 -8.333,-3.731 -8.333,-8.333c-0,-4.603 3.731,-8.334 8.333,-8.334c4.602,0 8.333,3.731 8.333,8.334c0,4.602 -3.73,8.333 -8.333,8.333Zm-4.167,8.334l8.334,-0l-0,33.333l-8.334,-0l0,-33.333Z" style="fill:#ff5100;fill-rule:nonzero;"/></svg>